<svg width="32" height="32" viewBox="0 0 32 32" fill="none" xmlns="http://www.w3.org/2000/svg">
  <rect width="32" height="32" rx="6" fill="#DC2626"/>
  <path d="M16 8C12.136 8 9 11.136 9 15C9 18.864 12.136 22 16 22C19.864 22 23 18.864 23 15C23 11.136 19.864 8 16 8ZM16 20C13.243 20 11 17.757 11 15C11 12.243 13.243 10 16 10C18.757 10 21 12.243 21 15C21 17.757 18.757 20 16 20Z" fill="white"/>
  <path d="M16 12C14.343 12 13 13.343 13 15C13 16.657 14.343 18 16 18C17.657 18 19 16.657 19 15C19 13.343 17.657 12 16 12ZM16 16C15.448 16 15 15.552 15 15C15 14.448 15.448 14 16 14C16.552 14 17 14.448 17 15C17 15.552 16.552 16 16 16Z" fill="white"/>
  <path d="M17 22H15V24H17V22Z" fill="white"/>
</svg>